<?xml version="1.0" standalone="no"?>
<!DOCTYPE svg PUBLIC "-//W3C//DTD SVG 20010904//EN"
 "http://www.w3.org/TR/2001/REC-SVG-20010904/DTD/svg10.dtd">
<svg version="1.0" xmlns="http://www.w3.org/2000/svg"
 width="3400.000000pt" height="2279.000000pt" viewBox="0 0 3400.000000 2279.000000"
 preserveAspectRatio="xMidYMid meet">

<g transform="translate(0.000000,2279.000000) scale(0.100000,-0.100000)"
fill="#000000" stroke="none">
<path d="M12004 12506 c-47 -8 -124 -31 -185 -57 -96 -40 -110 -50 -191 -131
-49 -48 -88 -93 -88 -100 0 -7 -8 -26 -17 -43 -14 -27 -17 -101 -23 -655 -8
-765 -3 -836 68 -975 47 -90 147 -187 257 -249 77 -43 90 -47 191 -58 99 -10
117 -9 196 10 108 26 194 66 276 126 139 103 181 208 197 491 8 146 -13 1131
-26 1199 -5 27 -28 92 -51 145 -63 143 -116 188 -324 275 -76 32 -173 39 -280
22z m168 -401 c40 -16 96 -75 102 -108 7 -31 26 -785 26 -1010 0 -182 -1 -190
-26 -243 -39 -83 -83 -108 -196 -113 l-89 -3 -34 37 c-68 71 -68 79 -69 740
l-1 590 23 38 c47 74 176 110 264 72z"/>
<path d="M12100 12009 c-64 -23 -105 -59 -121 -106 -7 -23 -11 -205 -12 -566
-2 -491 2 -607 21 -607 4 0 7 260 7 577 l0 578 23 37 c23 38 79 70 141 83 24
5 30 10 20 16 -17 11 -13 11 -79 -12z"/>
<path d="M31194 12506 c-48 -8 -123 -31 -184 -57 -93 -39 -112 -52 -183 -122
-54 -53 -86 -95 -104 -135 l-26 -57 -6 -605 c-6 -606 0 -780 29 -891 32 -120
130 -240 269 -326 83 -53 137 -69 254 -79 161 -12 363 64 485 184 77 76 103
124 129 237 16 73 18 129 15 615 -1 294 -6 599 -12 678 -9 136 -11 147 -51
238 -60 138 -85 169 -170 220 -41 25 -85 47 -99 51 -14 3 -46 17 -72 30 -61
30 -164 37 -274 19z m174 -402 c48 -23 90 -71 101 -112 5 -20 10 -171 10 -335
1 -165 4 -303 7 -309 3 -5 6 -129 7 -276 0 -254 -1 -269 -22 -317 -28 -63 -46
-83 -96 -106 -47 -22 -166 -25 -205 -6 -15 7 -37 37 -55 72 l-30 59 -8 251
c-4 137 -5 414 -2 614 7 404 6 402 74 443 62 39 165 49 219 22z"/>
<path d="M31288 12009 c-77 -27 -115 -70 -122 -141 -3 -29 -8 -217 -11 -418
-5 -388 4 -693 21 -710 7 -7 10 170 10 563 1 510 2 575 17 603 24 47 69 80
126 94 28 7 48 16 45 21 -7 12 -20 11 -86 -12z"/>
<path d="M7220 12503 c-76 -7 -100 -15 -110 -33 -13 -24 -55 -227 -70 -340 -6
-47 -24 -134 -39 -195 -16 -60 -38 -168 -51 -240 -12 -71 -29 -155 -37 -185
-8 -30 -18 -71 -23 -90 -4 -19 -12 -54 -19 -77 -6 -23 -18 -93 -26 -156 -7
-64 -26 -162 -40 -219 -39 -151 -133 -693 -123 -703 11 -12 130 -17 243 -10
150 8 129 -19 189 245 l42 185 164 8 c91 4 187 6 214 5 l50 -3 23 -110 c13
-60 36 -157 51 -215 l29 -105 188 2 c103 1 189 4 191 6 7 7 -103 547 -124 607
-11 30 -27 100 -36 155 -9 55 -37 192 -62 305 -41 187 -122 561 -159 735 -9
39 -31 146 -49 238 -19 93 -37 171 -40 174 -15 15 -278 26 -376 16z m245
-1226 c20 -99 34 -181 31 -185 -4 -3 -67 -8 -142 -10 -130 -4 -136 -4 -130 14
11 37 85 371 107 479 11 61 24 117 26 125 7 20 63 -200 108 -423z"/>
<path d="M7366 11230 c-16 -78 -15 -111 4 -81 15 25 31 130 22 147 -6 10 -14
-9 -26 -66z"/>
<path d="M15065 12504 c-16 -2 -49 -7 -72 -10 -36 -4 -43 -9 -52 -37 -16 -48
-49 -218 -66 -335 -8 -57 -21 -122 -29 -145 -7 -23 -24 -96 -36 -162 -39 -206
-66 -336 -93 -440 -14 -55 -31 -145 -37 -200 -7 -55 -25 -152 -40 -215 -26
-102 -38 -163 -81 -405 -34 -193 -46 -281 -40 -287 13 -15 122 -20 245 -13
l126 7 16 53 c8 30 30 122 49 206 18 83 37 155 42 159 4 4 101 11 215 15 l206
7 7 -34 c15 -80 87 -374 95 -388 6 -13 36 -15 185 -13 98 1 184 4 191 7 9 3
10 15 3 43 -4 21 -29 143 -54 271 -26 128 -55 257 -65 288 -11 30 -28 107 -40
172 -21 116 -89 438 -177 827 -24 110 -50 232 -57 270 -7 39 -25 131 -41 207
l-27 136 -32 6 c-43 7 -304 15 -341 10z m173 -939 c39 -157 102 -469 97 -474
-2 -2 -66 -6 -141 -9 l-137 -5 6 24 c19 76 117 531 123 567 4 24 10 40 14 35
4 -4 21 -66 38 -138z"/>
<path d="M15217 11290 c-14 -50 -27 -115 -26 -135 0 -19 0 -19 14 -1 17 22 28
90 23 132 -4 29 -4 29 -11 4z"/>
<path d="M19405 12504 c-16 -2 -49 -7 -72 -10 -36 -4 -43 -9 -52 -37 -15 -45
-58 -266 -71 -361 -5 -43 -16 -97 -24 -120 -8 -23 -24 -95 -36 -161 -36 -190
-66 -332 -93 -440 -14 -55 -30 -143 -37 -195 -6 -52 -24 -149 -40 -215 -47
-195 -132 -686 -121 -697 13 -15 122 -20 245 -13 l126 7 16 53 c8 30 30 122
49 206 18 83 37 155 42 159 4 4 101 11 215 15 l207 7 6 -29 c13 -72 88 -380
95 -393 6 -13 36 -15 185 -13 98 1 183 4 190 7 9 3 -3 80 -46 288 -32 155 -67
315 -78 353 -12 39 -39 162 -61 275 -22 113 -72 349 -111 525 -38 176 -91 422
-116 547 l-46 226 -31 6 c-43 7 -304 15 -341 10z m174 -939 c40 -168 101 -468
96 -473 -9 -10 -275 -14 -275 -5 0 5 17 83 39 174 21 90 51 228 67 306 16 78
31 139 35 135 3 -4 20 -65 38 -137z"/>
<path d="M19557 11290 c-15 -55 -27 -116 -26 -135 0 -41 28 15 34 70 8 62 2
106 -8 65z"/>
<path d="M24393 12500 c-63 -13 -188 -66 -246 -104 -59 -40 -135 -123 -164
-181 -41 -82 -58 -181 -56 -325 3 -208 42 -297 184 -418 43 -37 148 -130 235
-207 87 -77 187 -165 223 -195 36 -31 76 -71 88 -89 33 -48 53 -124 53 -196 0
-62 0 -62 -53 -112 -29 -28 -70 -56 -91 -63 -75 -24 -185 8 -218 66 -22 37
-38 142 -38 251 l0 81 -67 8 c-98 11 -254 9 -285 -4 -23 -10 -27 -18 -33 -74
-7 -67 9 -266 26 -332 31 -117 141 -260 229 -298 120 -53 151 -59 279 -58 281
2 396 44 513 188 53 65 66 88 91 171 65 216 41 397 -75 571 -42 62 -227 242
-323 315 -166 125 -271 238 -316 341 -22 50 -35 130 -25 167 10 40 54 75 123
98 60 20 71 20 122 9 76 -18 99 -34 124 -88 16 -37 22 -73 25 -169 l4 -122 50
-10 c54 -12 268 -13 308 -2 24 7 25 11 33 113 10 134 -14 265 -69 378 -42 85
-137 184 -218 228 -27 15 -60 33 -73 40 -51 29 -262 41 -360 22z"/>
<path d="M27816 12494 c-55 -7 -103 -17 -107 -21 -11 -12 -21 -486 -22 -1153
-2 -550 -3 -588 -20 -614 -29 -43 -99 -70 -183 -70 -92 1 -145 28 -176 93
l-22 45 2 840 c1 463 -2 847 -6 854 -15 23 -175 36 -276 23 -49 -6 -95 -16
-101 -21 -7 -6 -10 -279 -10 -892 l1 -883 23 -70 c45 -135 151 -256 277 -315
98 -46 166 -60 290 -60 132 0 228 21 321 71 135 72 210 160 238 280 9 40 21
86 25 101 5 15 9 137 9 270 1 134 2 524 4 867 2 493 0 626 -10 636 -11 11
-124 37 -149 34 -5 -1 -54 -7 -108 -15z"/>
<path d="M2108 12493 c-61 -4 -68 -6 -72 -26 -3 -12 -7 -332 -11 -712 -3 -379
-8 -866 -11 -1081 l-6 -392 54 -13 c31 -8 105 -14 181 -14 116 0 130 2 143 19
11 16 14 80 15 335 1 174 4 366 8 426 l6 110 67 1 67 1 80 -246 c44 -135 107
-329 139 -431 l59 -185 99 -23 c75 -17 116 -22 169 -17 95 7 115 13 115 37 0
11 -27 97 -61 191 -33 95 -104 299 -157 455 l-97 283 88 81 c130 119 159 168
194 323 18 84 19 390 1 463 -21 85 -76 187 -138 255 -54 59 -68 68 -138 91
-173 58 -485 85 -794 69z m588 -404 c29 -8 54 -23 75 -47 l31 -35 -4 -176 c-3
-118 -8 -185 -17 -202 -24 -49 -131 -79 -283 -79 l-78 0 0 275 0 275 116 0
c63 0 135 -5 160 -11z"/>
<path d="M2575 12011 l-70 -6 -3 -192 c-2 -167 0 -193 13 -193 13 0 15 26 15
185 l0 185 95 0 c52 0 95 4 95 9 0 12 -26 21 -53 19 -12 -1 -53 -4 -92 -7z"/>
<path d="M10764 12490 c-98 -10 -105 -16 -121 -91 -7 -35 -33 -128 -57 -208
-24 -81 -55 -191 -69 -246 -14 -55 -45 -170 -70 -255 -24 -85 -58 -207 -75
-270 -52 -197 -49 -195 -87 -50 -18 69 -58 211 -88 315 -31 105 -72 253 -92
330 -19 77 -49 183 -65 235 -17 52 -38 122 -47 154 l-18 60 -80 14 c-70 12
-251 12 -405 -1 l-25 -2 0 -145 c0 -80 5 -462 10 -850 5 -388 10 -752 10 -810
0 -58 1 -171 3 -251 l2 -147 102 -12 c79 -10 120 -10 176 -1 41 6 78 9 83 6 4
-3 11 6 15 21 7 27 -2 577 -12 791 -7 139 4 424 16 402 17 -31 112 -313 149
-444 22 -77 55 -183 74 -235 19 -52 47 -139 63 -194 l27 -99 139 5 c77 3 144
10 149 15 6 6 33 91 61 189 27 99 81 276 118 394 38 118 79 249 92 290 l23 75
6 -585 c3 -322 9 -595 14 -607 4 -14 16 -23 29 -24 11 0 57 -4 101 -9 80 -8
207 3 236 21 10 6 14 30 13 91 0 46 -3 537 -7 1093 l-6 1010 -25 6 c-35 10
-220 29 -259 28 -18 -1 -64 -5 -103 -9z"/>
<path d="M21440 12491 l-65 -6 -6 -360 c-7 -352 -23 -1601 -24 -1760 l0 -80
70 -18 c84 -21 285 -21 307 1 10 10 14 109 19 435 4 232 7 427 8 434 1 7 24
11 69 10 l67 -2 82 -250 c45 -137 108 -332 140 -431 l58 -182 80 -17 c43 -9
102 -19 130 -22 58 -6 164 13 171 31 3 7 -23 91 -56 187 -135 387 -249 720
-252 737 -2 12 24 42 78 90 103 91 150 159 182 264 21 71 25 109 30 267 5 213
-1 256 -60 380 -57 118 -137 198 -233 228 -174 56 -549 86 -795 64z m625 -413
c64 -34 70 -48 73 -190 4 -146 -11 -258 -37 -282 -33 -30 -106 -47 -219 -53
-84 -5 -116 -3 -121 6 -5 7 -6 128 -4 269 2 141 3 261 3 266 0 4 62 6 138 4
100 -3 145 -8 167 -20z"/>
<path d="M21910 12011 l-65 -6 -3 -193 c-2 -153 0 -193 10 -190 10 4 14 50 16
186 l2 182 95 0 c88 0 118 9 79 24 -17 6 -30 6 -134 -3z"/>
<path d="M25381 12482 c-32 -60 -41 -326 -12 -355 8 -8 80 -14 229 -17 l217
-5 -1 -60 c-1 -33 -4 -446 -7 -917 l-5 -856 51 -13 c58 -14 233 -18 288 -6
l36 7 8 103 c4 56 7 469 7 917 -1 449 2 820 6 825 4 6 85 8 210 5 130 -3 207
-1 211 5 20 25 41 114 41 169 -1 58 -22 181 -33 193 -3 3 -225 7 -494 9 -268
2 -545 6 -615 9 -113 4 -129 2 -137 -13z"/>
<path d="M3625 12483 c-11 -2 -35 -9 -53 -15 l-33 -10 3 -1088 c2 -863 6
-1092 16 -1102 21 -21 141 -22 477 -3 254 14 357 16 500 8 99 -5 184 -6 188
-3 14 12 29 201 22 278 -9 113 1 106 -143 97 -68 -3 -245 -3 -392 1 l-267 7
-6 81 c-7 101 3 420 14 438 7 10 72 13 304 14 162 1 299 4 303 8 4 4 7 76 7
160 0 128 -3 156 -18 179 l-17 27 -295 0 -294 0 -8 48 c-10 62 -10 165 1 337
l9 140 386 0 386 0 15 30 c20 40 21 273 2 328 l-14 37 -66 1 c-285 4 -1011 6
-1027 2z"/>
<path d="M5176 12479 c-43 -5 -80 -10 -82 -12 -7 -7 -11 -2166 -4 -2178 17
-27 271 -39 340 -16 l35 12 7 110 c13 187 13 257 4 679 -6 304 -6 407 3 402 6
-4 11 -13 11 -19 0 -7 27 -70 61 -142 87 -188 135 -302 194 -460 52 -139 201
-498 229 -553 15 -28 18 -29 113 -36 90 -6 272 1 283 11 2 2 5 496 5 1098 l0
1094 -48 11 c-53 11 -230 13 -290 4 l-38 -7 2 -596 c1 -350 -3 -606 -8 -620
-8 -21 -17 -7 -76 122 -37 80 -87 198 -112 260 -25 63 -81 199 -125 301 -44
103 -80 189 -80 192 0 4 -20 50 -44 103 -24 53 -56 127 -73 166 -25 60 -33 71
-58 76 -41 9 -154 8 -249 -2z"/>
<path d="M12924 12475 c-7 -16 5 -47 92 -240 29 -66 76 -183 105 -260 28 -77
81 -207 116 -290 36 -82 78 -184 93 -225 15 -41 40 -102 55 -135 l27 -60 1
-499 2 -500 30 -8 c37 -10 196 -10 290 0 l70 7 0 485 1 485 107 255 c58 140
129 309 157 375 29 66 60 144 71 174 10 30 23 59 28 65 17 22 141 323 141 344
0 11 -4 23 -8 26 -14 9 -282 14 -346 7 l-58 -6 -34 -95 c-92 -259 -141 -386
-192 -498 l-56 -124 -29 64 c-16 34 -76 195 -133 357 -56 161 -106 296 -109
300 -4 3 -99 7 -211 9 -176 2 -205 0 -210 -13z"/>
<path d="M17415 12484 c-16 -2 -44 -7 -62 -9 l-31 -6 1 -127 c1 -70 0 -564 -3
-1099 -4 -748 -2 -975 7 -984 14 -14 310 -19 356 -6 l27 7 0 379 c0 208 3 412
6 455 l7 76 221 -2 221 -3 1 -437 c0 -412 1 -438 19 -458 18 -19 28 -20 194
-18 l176 3 0 270 c0 719 -16 1930 -26 1940 -15 15 -266 19 -317 6 l-42 -12 0
-343 c0 -189 -3 -391 -6 -449 l-7 -106 -222 1 -222 1 -7 126 c-4 69 -9 270
-12 446 -4 320 -4 320 -27 332 -23 12 -200 24 -252 17z"/>
<path d="M20640 12482 c-48 -2 -67 -7 -74 -20 -11 -20 -9 -2134 2 -2177 7 -24
16 -31 48 -38 55 -12 313 0 332 15 13 11 14 47 7 268 -9 299 -11 470 -8 710 2
96 0 413 -5 705 l-7 529 -35 8 c-33 7 -105 7 -260 0z"/>
<path d="M28442 12479 l-23 -9 6 -1032 c3 -568 8 -1061 11 -1096 4 -47 10 -65
24 -72 26 -14 295 -12 563 4 219 14 230 16 293 45 91 43 183 133 228 224 68
139 68 139 63 837 l-5 625 -25 97 c-16 60 -39 117 -60 151 -63 99 -205 180
-355 202 -196 30 -667 46 -720 24z m683 -376 c47 -24 74 -54 85 -94 6 -22 12
-277 14 -631 3 -677 4 -674 -68 -714 -57 -32 -146 -47 -240 -39 l-81 7 0 741
0 742 90 6 c107 7 159 2 200 -18z"/>
<path d="M29000 12033 c-30 -3 -60 -9 -67 -15 -19 -15 -19 -1332 0 -1325 9 3
11 131 8 608 -2 332 0 628 4 657 l7 52 68 0 c38 0 75 3 84 6 24 9 9 24 -22 22
-15 -1 -52 -3 -82 -5z"/>
<path d="M30035 12482 c-32 -2 -66 -8 -74 -15 -12 -10 -13 -161 -7 -1107 5
-696 11 -1099 17 -1105 12 -12 310 -14 351 -2 25 7 26 9 33 109 4 57 2 186 -5
288 -6 104 -10 349 -8 560 4 502 -5 1256 -15 1267 -9 8 -188 12 -292 5z"/>
<path d="M5555 12383 c3 -15 35 -91 70 -168 35 -77 84 -192 108 -255 70 -179
178 -434 189 -445 5 -5 1 13 -10 40 -11 28 -38 95 -60 150 -22 55 -67 170
-100 255 -34 85 -82 205 -107 265 -26 61 -54 127 -62 148 -19 43 -38 50 -28
10z"/>
<path d="M7690 12358 c0 -13 7 -48 16 -78 9 -30 22 -90 30 -134 7 -43 18 -93
23 -110 13 -44 58 -247 71 -331 7 -38 27 -133 46 -210 41 -174 80 -358 94
-450 6 -38 22 -105 35 -147 13 -42 51 -215 85 -384 47 -240 58 -310 48 -321
-9 -12 -44 -14 -180 -11 -146 3 -168 1 -166 -12 3 -13 32 -15 174 -18 152 -2
174 0 192 15 19 16 20 23 11 63 -5 25 -29 144 -54 265 -24 121 -51 239 -59
262 -8 24 -27 105 -41 180 -24 130 -97 472 -180 843 -29 130 -124 586 -125
598 0 1 -4 2 -10 2 -5 0 -10 -10 -10 -22z"/>
<path d="M15525 12353 c4 -15 14 -55 22 -88 8 -33 21 -94 29 -135 7 -41 25
-122 39 -180 14 -58 37 -163 50 -235 13 -71 32 -166 44 -210 28 -111 87 -390
95 -450 8 -54 57 -237 63 -231 6 6 -41 252 -91 477 -25 112 -57 260 -71 329
-14 69 -39 181 -55 250 -16 69 -47 208 -67 309 -23 114 -43 186 -51 189 -9 3
-11 -4 -7 -25z"/>
<path d="M19866 12353 c3 -16 13 -55 21 -88 8 -33 19 -82 24 -110 4 -27 26
-129 48 -225 22 -96 49 -222 60 -280 11 -58 38 -181 60 -275 22 -93 49 -224
60 -290 20 -115 77 -319 65 -230 -12 79 -56 303 -90 455 -20 85 -51 232 -70
325 -19 94 -46 213 -59 265 -13 52 -41 182 -61 288 -27 134 -42 192 -51 192
-9 0 -12 -8 -7 -27z"/>
<path d="M4818 12339 c9 -44 9 -264 0 -309 l-8 -35 -384 4 c-383 3 -384 3
-396 -18 -14 -28 -27 -361 -13 -361 10 0 33 212 33 302 l0 48 387 2 388 3 14
30 c33 69 23 325 -15 355 -12 11 -13 7 -6 -21z"/>
<path d="M14357 12363 c-13 -12 -7 -23 13 -23 11 0 20 -7 20 -15 0 -23 -54
-161 -105 -270 -26 -55 -71 -161 -101 -236 -29 -74 -80 -194 -113 -266 -33
-72 -76 -173 -95 -224 -19 -52 -46 -121 -60 -154 l-26 -60 0 -467 0 -466 -63
-7 c-34 -4 -115 -5 -180 -3 -88 2 -117 0 -117 -9 0 -26 136 -35 280 -19 l105
11 1 485 1 485 40 95 c23 52 69 163 103 245 35 83 87 209 117 280 30 72 63
154 74 184 10 30 23 59 28 65 5 6 32 67 62 136 29 69 58 134 66 145 18 27 17
81 -3 89 -20 8 -39 8 -47 -1z"/>
<path d="M21010 12361 c0 -6 5 -13 10 -16 7 -4 10 -276 10 -783 0 -427 5 -911
11 -1075 10 -264 10 -300 -4 -314 -21 -21 -316 -25 -341 -4 -14 12 -16 11 -16
-7 0 -30 46 -36 219 -29 124 5 147 9 159 24 12 15 13 71 8 323 -3 168 -8 654
-11 1080 -3 426 -8 783 -11 793 -6 18 -34 24 -34 8z"/>
<path d="M26728 12225 c3 -103 1 -153 -8 -175 l-12 -30 -192 0 c-190 0 -193 0
-215 -24 l-23 -24 3 -364 c4 -619 -2 -1249 -12 -1333 -14 -103 -19 -112 -75
-121 -45 -6 -216 7 -261 21 -25 8 -32 -9 -8 -19 36 -14 196 -28 254 -22 78 7
96 22 112 91 7 34 12 328 14 900 4 794 5 850 21 862 13 10 69 13 204 13 239 0
225 -11 225 179 0 75 -3 148 -8 164 -17 61 -24 19 -19 -118z"/>
<path d="M27360 12362 c0 -5 2 -11 5 -14 3 -3 6 -313 6 -689 -1 -376 2 -739 6
-806 14 -289 20 -71 19 694 -1 770 -2 818 -18 821 -10 2 -18 -1 -18 -6z"/>
<path d="M28160 12361 c0 -6 4 -11 10 -11 6 0 8 -64 5 -167 -2 -93 -5 -478 -6
-858 -1 -685 -2 -690 -25 -794 -15 -68 -33 -118 -51 -143 -48 -70 -176 -162
-268 -193 -79 -27 -246 -40 -329 -27 -39 6 -93 14 -121 17 -49 6 -50 6 -19 -8
82 -38 275 -49 411 -23 91 17 211 81 281 149 54 53 112 152 112 191 0 12 7 48
15 79 12 48 15 195 17 924 3 820 2 868 -14 871 -10 2 -18 -1 -18 -7z"/>
<path d="M30400 12360 c0 -5 4 -10 8 -10 11 0 33 -2173 23 -2183 -15 -15 -316
-14 -334 1 -12 10 -17 10 -23 1 -4 -7 1 -18 12 -27 15 -11 49 -13 179 -9 88 3
167 8 177 12 23 9 33 141 24 305 -4 69 -9 518 -12 998 -3 510 -9 883 -14 897
-9 24 -40 36 -40 15z"/>
<path d="M6451 12344 c10 -13 12 -91 9 -402 -5 -372 -4 -966 2 -1499 l3 -251
-35 -6 c-56 -9 -233 -7 -290 4 -60 11 -68 9 -46 -13 21 -20 196 -32 307 -21
l83 9 2 1075 c0 591 -1 1085 -4 1098 -2 14 -11 22 -24 22 -18 0 -19 -2 -7 -16z"/>
<path d="M11220 12351 c0 -5 4 -11 9 -13 6 -2 11 -439 13 -1078 l3 -1075 -30
-14 c-37 -18 -212 -20 -269 -3 -22 6 -42 9 -45 7 -26 -27 166 -52 272 -35 39
6 77 16 84 21 10 9 12 224 8 1095 -2 597 -7 1089 -10 1094 -8 13 -35 13 -35 1z"/>
<path d="M17760 12345 c0 -8 3 -15 8 -15 4 0 8 -136 9 -303 2 -321 8 -401 27
-394 6 2 10 17 10 33 -1 16 -5 175 -8 353 -3 178 -9 327 -12 332 -9 15 -34 10
-34 -6z"/>
<path d="M18610 12346 c0 -9 4 -16 8 -16 5 0 10 -132 11 -292 1 -161 5 -576 9
-923 4 -346 7 -700 7 -785 l0 -155 -163 -3 c-101 -1 -170 2 -182 8 -16 8 -20
8 -20 -3 0 -33 26 -38 206 -35 l179 3 5 215 c3 118 2 249 -2 290 -4 41 -7 302
-9 580 -1 278 -4 644 -8 815 -5 284 -7 310 -23 313 -11 2 -18 -3 -18 -12z"/>
<path d="M10086 12321 c4 -19 13 -48 20 -65 l15 -31 -7 35 c-3 19 -13 49 -20
65 l-14 30 6 -34z"/>
<path d="M13461 12343 c-1 -17 104 -326 123 -360 26 -47 18 -21 -43 154 -66
189 -79 223 -80 206z"/>
<path d="M10131 12184 c-2 -30 179 -677 187 -669 2 2 -16 77 -41 167 -25 90
-59 215 -76 278 -34 128 -70 241 -70 224z"/>
<path d="M29643 12095 c3 -11 9 -40 12 -65 4 -25 13 -68 21 -96 12 -42 15
-163 17 -650 2 -689 1 -700 -69 -841 -98 -196 -190 -236 -609 -263 -247 -15
-434 -13 -441 5 -8 19 -24 19 -24 0 0 -28 39 -35 202 -35 195 0 567 25 623 41
155 45 259 159 316 349 22 73 23 88 26 660 2 354 -1 619 -7 672 -11 89 -44
215 -62 233 -7 7 -8 4 -5 -10z"/>
<path d="M25165 12066 c25 -88 41 -413 21 -433 -10 -10 -254 -9 -311 1 -39 6
-47 6 -39 -4 20 -21 85 -30 221 -30 103 0 135 3 146 15 10 10 17 48 22 120 6
90 4 119 -14 198 -12 50 -29 106 -37 122 -8 17 -12 21 -9 11z"/>
<path d="M31924 12035 c21 -162 26 -280 36 -735 6 -329 7 -544 1 -595 -29
-243 -44 -286 -127 -367 -91 -88 -196 -144 -338 -180 -91 -23 -169 -21 -275 7
-72 19 -92 13 -36 -11 96 -40 216 -43 347 -10 181 46 315 138 392 268 63 107
73 291 58 1028 -9 388 -14 497 -26 544 -22 77 -39 106 -32 51z"/>
<path d="M12730 12035 c0 -17 5 -46 10 -65 13 -45 29 -526 31 -940 2 -465 -16
-573 -116 -679 -92 -98 -245 -176 -398 -202 -66 -11 -88 -11 -164 4 -156 30
-153 29 -98 2 77 -37 211 -44 330 -15 50 11 114 32 142 45 79 36 180 112 225
169 106 133 116 248 99 1046 -11 507 -17 591 -49 645 -10 18 -11 18 -12 -10z"/>
<path d="M25474 12038 c-15 -24 21 -33 146 -36 89 -3 130 0 130 7 0 7 -37 11
-107 11 -74 0 -117 5 -135 14 -18 10 -30 11 -34 4z"/>
<path d="M22596 11998 c4 -24 11 -53 15 -66 23 -60 1 -402 -31 -498 -25 -74
-86 -171 -133 -210 -18 -14 -52 -44 -75 -66 -39 -37 -43 -44 -37 -74 9 -49
211 -629 242 -694 14 -30 29 -82 34 -115 4 -33 11 -70 14 -81 6 -19 2 -22 -47
-27 -29 -3 -109 1 -177 9 -174 20 -175 4 -1 -31 102 -21 215 -15 242 13 17 17
17 21 -2 88 -10 39 -46 141 -78 225 -53 138 -206 580 -214 619 -2 9 31 45 78
87 103 91 154 167 185 275 22 76 24 101 24 298 0 184 -3 220 -18 253 -23 48
-29 47 -21 -5z"/>
<path d="M3266 11985 c4 -27 7 -138 7 -245 1 -298 -26 -376 -186 -531 -91 -89
-98 -98 -91 -125 14 -56 216 -630 245 -695 17 -39 29 -83 29 -110 1 -24 7 -55
15 -69 8 -14 14 -28 15 -31 1 -15 -125 -17 -235 -4 -109 13 -136 13 -124 1 11
-11 193 -46 236 -46 57 1 121 14 136 29 15 15 -9 108 -69 259 -51 130 -184
509 -216 616 l-20 70 86 79 c129 118 159 168 193 322 21 97 25 372 7 444 -21
78 -36 99 -28 36z"/>
<path d="M24515 12013 c-63 -33 -105 -88 -105 -137 0 -41 17 -39 24 3 8 53 42
85 119 110 37 13 65 27 61 32 -8 14 -66 10 -99 -8z"/>
<path d="M4648 11275 c4 -133 2 -166 -9 -170 -8 -2 -138 -6 -289 -8 -178 -2
-283 -8 -296 -15 -27 -14 -33 -51 -35 -222 -1 -108 2 -135 12 -135 11 0 15 35
19 167 3 91 9 170 13 174 5 5 140 9 300 9 l292 1 12 24 c15 29 17 225 4 284
-20 83 -26 49 -23 -109z"/>
<path d="M5563 10785 c3 -187 2 -396 -1 -465 l-7 -125 -45 -12 c-75 -19 -228
-13 -294 13 -14 5 -17 3 -14 -12 4 -24 62 -35 198 -36 77 -1 115 3 143 15 35
15 37 18 38 64 1 26 4 93 8 148 10 134 -7 727 -21 740 -7 7 -9 -90 -5 -330z"/>
<path d="M17815 11080 c-16 -26 -24 -221 -25 -551 l0 -356 -31 -7 c-42 -8
-179 -6 -254 4 -64 8 -79 3 -65 -20 8 -12 40 -15 184 -15 126 0 178 3 187 12
10 10 12 87 10 328 -1 173 1 376 5 450 l7 135 133 0 c133 0 176 12 88 24 -74
10 -232 7 -239 -4z"/>
<path d="M9934 11004 c12 -157 26 -739 20 -781 l-6 -42 -56 -7 c-47 -6 -104
-4 -262 9 -14 1 -27 -2 -30 -8 -3 -6 37 -16 98 -24 84 -12 118 -13 184 -3 45
6 85 17 89 24 16 26 21 230 10 431 -18 329 -28 444 -41 464 -9 14 -10 0 -6
-63z"/>
<path d="M2496 11010 c-3 -30 -9 -230 -13 -445 l-8 -390 -60 -6 c-55 -6 -181
2 -263 17 -22 3 -32 2 -28 -5 16 -25 205 -55 290 -45 99 11 92 -21 99 470 3
236 2 436 -3 444 -5 9 -10 -5 -14 -40z"/>
<path d="M21835 11049 c-4 -6 -11 -206 -14 -443 l-6 -431 -65 -7 c-58 -5 -163
2 -257 17 -62 11 -33 -13 35 -28 163 -36 288 -30 309 17 12 25 22 870 12 881
-4 3 -10 1 -14 -6z"/>
<path d="M25155 10950 c3 -14 12 -58 20 -98 17 -84 19 -207 4 -272 -27 -120
-42 -151 -106 -232 -70 -88 -138 -136 -238 -165 -62 -19 -387 -24 -457 -7 -67
16 -60 1 10 -20 92 -30 386 -19 482 17 89 33 141 69 201 139 70 83 80 104 114
231 38 140 30 316 -18 402 -16 27 -17 28 -12 5z"/>
<path d="M24380 10890 c0 -5 5 -10 10 -10 6 0 10 -36 10 -89 0 -60 4 -92 13
-99 10 -9 12 8 11 86 0 53 -2 103 -2 110 -2 14 -42 17 -42 2z"/>
<path d="M10691 10855 c-14 -33 -81 -270 -101 -352 -6 -29 -17 -57 -24 -62
-21 -17 -242 -27 -261 -11 -18 15 -30 7 -22 -15 5 -12 26 -15 114 -14 59 0
126 3 147 7 37 7 40 11 58 62 34 99 109 384 105 399 -3 11 -8 6 -16 -14z"/>
<path d="M15875 10780 c3 -19 24 -127 46 -240 55 -280 63 -326 55 -345 -5 -15
-25 -16 -181 -13 -96 2 -175 1 -175 -3 0 -24 34 -29 188 -29 197 0 207 3 197
68 -15 108 -98 498 -116 545 -16 42 -18 45 -14 17z"/>
<path d="M20211 10804 c-1 -10 16 -98 58 -304 43 -211 53 -266 50 -290 l-4
-25 -178 0 c-97 0 -177 -2 -177 -6 0 -24 34 -29 188 -29 197 0 207 3 197 68
-25 175 -131 637 -134 586z"/>
<path d="M7275 10603 c-11 -3 -23 -8 -27 -11 -7 -8 -49 -181 -74 -307 -25
-126 -8 -117 -210 -113 -133 2 -174 0 -174 -9 0 -21 39 -25 198 -21 138 3 153
5 172 24 16 15 31 64 56 180 19 87 38 175 42 194 l8 35 129 5 c90 4 130 9 133
18 3 9 -24 12 -115 11 -65 -1 -127 -3 -138 -6z"/>
<path d="M15111 10601 c-13 -3 -28 -13 -32 -21 -8 -15 -62 -252 -74 -325 -4
-22 -14 -50 -22 -63 -14 -24 -15 -24 -189 -20 -125 2 -174 0 -174 -8 0 -7 10
-14 23 -18 36 -10 304 -7 331 4 36 13 49 50 87 230 46 222 25 199 175 202 91
2 129 7 132 16 3 9 -24 12 -115 11 -65 -1 -129 -4 -142 -8z"/>
<path d="M19451 10601 c-13 -3 -28 -13 -32 -21 -4 -8 -24 -91 -44 -185 -20
-93 -42 -181 -49 -195 l-12 -25 -177 0 c-125 0 -177 -3 -177 -11 0 -7 10 -14
23 -18 36 -10 304 -7 331 4 36 13 50 50 86 230 17 85 35 165 40 177 9 21 16
23 136 25 91 2 129 7 132 16 3 9 -24 12 -115 11 -65 -1 -129 -4 -142 -8z"/>
<path d="M4817 10513 c10 -34 9 -235 0 -284 l-7 -37 -363 -6 c-199 -3 -453 -9
-564 -12 -145 -4 -203 -3 -203 5 0 6 -5 11 -11 11 -24 0 -2 -35 26 -41 55 -12
244 -9 458 7 182 14 522 14 661 1 28 -3 37 39 39 193 2 145 -5 190 -28 190
-12 0 -14 -6 -8 -27z"/>
</g>
</svg>
